<svg xmlns="http://www.w3.org/2000/svg" width="221" height="63" viewBox="0 0 221 63" fill="none">
    <g filter="url(#filter0_d_1721_8717)">
        <path d="M9.4666 32.378L4.9111 27.3171L24.2264 11.0976V1.52439H31.6367V11.0976L50.952 27.3171L46.3965 32.378L27.9316 16.7683L9.4666 32.378ZM4 47.3171V41.2195H51.8631V47.3171H4Z" fill="white"/>
        <path d="M67.7922 31.2195H75.2025V35.9146H98.6481V31.2195H106.058V54.3293H67.7922V31.2195ZM60.5034 26.4634V1.82927H67.2455V20.4878H82.9772V26.4634H60.5034ZM75.2025 48.3537H98.6481V41.8902H75.2025V48.3537ZM86.6823 28.5366V0H93.4245V10.9756H99.3162V0H106.058V28.5366H99.3162V17.0732H93.4245V28.5366H86.6823Z" fill="white"/>
        <path d="M140.756 55C136.687 55 133.103 54.5122 130.127 53.5366C124.113 51.6463 120.894 48.1707 120.894 43.7195C120.894 41.4634 121.684 39.5122 123.263 37.8049C126.421 34.4512 132.556 32.439 140.756 32.439C144.826 32.439 148.409 32.9268 151.386 33.8415C157.399 35.7927 160.618 39.2683 160.618 43.7195C160.618 45.9756 159.828 47.9268 158.249 49.5732C155.091 52.9878 148.956 55 140.756 55ZM115.488 6.82927V1.21951H144.279V17.378H123.506V22.6829H146.83V28.2927H116.096V12.0122H136.869V6.82927H115.488ZM128.304 43.7195C128.304 45.3049 129.458 46.5854 131.706 47.5C134.075 48.4146 137.051 48.9024 140.756 48.9024C144.461 48.9024 147.498 48.4146 149.867 47.5C152.115 46.5854 153.208 45.3659 153.208 43.7195C153.208 42.0732 152.115 40.8537 149.867 39.939C147.498 39.0244 144.461 38.5366 140.756 38.5366C137.051 38.5366 134.075 39.0244 131.706 39.939C129.458 40.8537 128.304 42.1341 128.304 43.7195ZM152.479 30.9756V0H159.889V30.9756H152.479Z" fill="white"/>
        <path d="M206.249 23.9024H172.599V17.8049H206.249V8.59756H172.174V2.5H213.659V33.8415H206.249V23.9024ZM169.137 47.3171V41.2195H217V47.3171H169.137Z" fill="white"/>
    </g>
    <defs>
        <filter id="filter0_d_1721_8717" x="0" y="0" width="221" height="63" filterUnits="userSpaceOnUse" color-interpolation-filters="sRGB">
            <feFlood flood-opacity="0" result="BackgroundImageFix"/>
            <feColorMatrix in="SourceAlpha" type="matrix" values="0 0 0 0 0 0 0 0 0 0 0 0 0 0 0 0 0 0 127 0" result="hardAlpha"/>
            <feOffset dy="4"/>
            <feGaussianBlur stdDeviation="2"/>
            <feComposite in2="hardAlpha" operator="out"/>
            <feColorMatrix type="matrix" values="0 0 0 0 1 0 0 0 0 1 0 0 0 0 1 0 0 0 0.25 0"/>
            <feBlend mode="normal" in2="BackgroundImageFix" result="effect1_dropShadow_1721_8717"/>
            <feBlend mode="normal" in="SourceGraphic" in2="effect1_dropShadow_1721_8717" result="shape"/>
        </filter>
    </defs>
</svg>