<svg width="176" height="54" viewBox="0 0 176 54" fill="none" xmlns="http://www.w3.org/2000/svg">
<g clip-path="url(#clip0_1182_5770)">
<path d="M163.069 0H12.9383C12.4407 0 11.949 0 11.4528 0.0027C11.0373 0.0054 10.6252 0.0132435 10.2058 0.019845C9.29459 0.0305124 8.38554 0.110263 7.48654 0.258404C6.5888 0.409769 5.71918 0.695136 4.9071 1.10485C4.09601 1.51804 3.3549 2.05493 2.71064 2.69604C2.06301 3.33536 1.52315 4.07432 1.11183 4.88452C0.699383 5.6931 0.413388 6.55957 0.263727 7.454C0.112643 8.3473 0.0313438 9.2509 0.0205581 10.1567C0.00796542 10.5706 0.00663558 10.9859 0 11.3999V42.6041C0.00663558 43.0233 0.00796542 43.4294 0.0205581 43.8487C0.0313471 44.7544 0.112647 45.658 0.263727 46.5512C0.412975 47.4462 0.698986 48.3132 1.11183 49.122C1.52296 49.9296 2.06289 50.6656 2.71064 51.3013C3.35246 51.9453 4.09405 52.4826 4.9071 52.8926C5.71918 53.3034 6.5887 53.5905 7.48654 53.7442C8.38569 53.8911 9.29465 53.9709 10.2058 53.9829C10.6252 53.992 11.0373 53.9973 11.4528 53.9973C11.949 54 12.4407 54 12.9383 54H163.069C163.557 54 164.052 54 164.54 53.9973C164.953 53.9973 165.378 53.992 165.791 53.9829C166.7 53.9715 167.608 53.8918 168.505 53.7442C169.406 53.5894 170.278 53.3024 171.094 52.8926C171.907 52.4823 172.648 51.9451 173.289 51.3013C173.935 50.6631 174.476 49.9277 174.892 49.122C175.302 48.3126 175.585 47.4457 175.732 46.5512C175.884 45.6579 175.968 44.7545 175.984 43.8487C175.989 43.4294 175.989 43.0233 175.989 42.6041C176 42.1137 176 41.6259 176 41.1275V12.8738C176 12.3794 176 11.889 175.989 11.3999C175.989 10.9859 175.989 10.5706 175.984 10.1566C175.968 9.25077 175.884 8.34737 175.732 7.45394C175.585 6.56003 175.302 5.69363 174.892 4.88446C174.055 3.26051 172.726 1.93863 171.094 1.10473C170.278 0.696016 169.406 0.410725 168.505 0.258282C167.608 0.109489 166.7 0.0297105 165.791 0.019656C165.378 0.013068 164.953 0.005157 164.54 0.0025245C164.052 0 163.557 0 163.069 0Z" fill="#A6A6A6"/>
<path d="M11.4603 52.8187C11.0468 52.8187 10.6434 52.8134 10.2332 52.8042C9.38343 52.7932 8.53565 52.7196 7.69682 52.584C6.91465 52.45 6.15694 52.2007 5.44867 51.8444C4.7469 51.491 4.10683 51.0276 3.55299 50.4719C2.99112 49.9229 2.52334 49.286 2.16818 48.5867C1.80911 47.8828 1.56062 47.1283 1.43135 46.3495C1.29175 45.5126 1.21622 44.6664 1.20541 43.8182C1.19681 43.5335 1.18555 42.5855 1.18555 42.5855V11.3998C1.18555 11.3998 1.19754 10.4664 1.20548 10.1921C1.21583 9.34525 1.29092 8.50038 1.4301 7.66484C1.55961 6.88389 1.8083 6.12721 2.16756 5.421C2.52141 4.72213 2.98659 4.08481 3.54507 3.53377C4.10293 2.97749 4.74504 2.51172 5.44801 2.15344C6.15464 1.79823 6.91092 1.55069 7.69151 1.41912C8.5331 1.28218 9.38382 1.20815 10.2365 1.19764L11.4609 1.18115H164.534L165.773 1.1983C166.618 1.20829 167.461 1.28166 168.295 1.41779C169.084 1.55102 169.848 1.80028 170.562 2.15739C171.971 2.87943 173.117 4.02177 173.84 5.4243C174.193 6.12563 174.438 6.87614 174.566 7.65034C174.707 8.49274 174.785 9.34425 174.802 10.1981C174.806 10.5804 174.806 10.9911 174.806 11.3998C174.816 11.906 174.816 12.3879 174.816 12.8737V41.1274C174.816 41.6178 174.816 42.0964 174.806 42.5789C174.806 43.0179 174.806 43.4201 174.8 43.834C174.784 44.6726 174.707 45.5089 174.568 46.3362C174.442 47.1207 174.195 47.881 173.836 48.5907C173.478 49.2825 173.013 49.9138 172.457 50.4614C171.903 51.02 171.262 51.4861 170.559 51.8418C169.846 52.2009 169.083 52.4511 168.295 52.584C167.456 52.7203 166.608 52.7939 165.759 52.8042C165.361 52.8134 164.945 52.8187 164.541 52.8187L163.07 52.8214L11.4603 52.8187Z" fill="black"/>
<path d="M51.4659 34.1337H48.0549V38.8442C49.4648 38.8703 50.8741 38.767 52.265 38.5357L52.3902 39.5509C50.7885 39.7994 49.169 39.9162 47.548 39.9003H46.8086V33.1067H51.4659L51.4659 34.1337ZM54.2984 36.0255H55.7713V37.0591H54.2984V42.2495H53.0402V32.1575H54.2984V36.0255Z" fill="white"/>
<path d="M65.8883 37.1302V38.1269H62.0122V40.0306H60.742V38.1269H56.7168V37.1302H65.8883ZM57.7842 34.4658C57.7842 33.2964 59.1498 32.4487 61.3085 32.4487C63.4672 32.4487 64.8448 33.2964 64.8448 34.4658C64.8448 35.6523 63.4672 36.5001 61.3205 36.5001C59.1498 36.5 57.7842 35.6523 57.7842 34.4658ZM59.1021 40.9851H64.8328V41.9765H57.8558V39.1051H59.1021V40.9851ZM59.0663 34.4777C59.0663 35.1237 60.0145 35.5403 61.3025 35.5403C62.6324 35.5403 63.5507 35.1237 63.5507 34.4777C63.5507 33.8185 62.6383 33.398 61.3085 33.398C60.0145 33.3979 59.0663 33.8185 59.0663 34.4777Z" fill="white"/>
<path d="M76.2008 39.978V40.9747H67.0293V39.978H70.9829V38.3341H68.2041V35.0237H73.7678V33.7949H68.1862V32.793H75.0379V36.0322H69.4563V37.3374H75.2944V38.334H72.2353V39.978L76.2008 39.978Z" fill="white"/>
<path d="M86.5133 40.9087H77.3418V39.912H86.5133L86.5133 40.9087ZM85.3325 34.0216H79.7688V36.798H85.4101V37.8053H78.5285V33.0117H85.3325L85.3325 34.0216Z" fill="white"/>
<path d="M96.5835 35.5812H90.668V34.5911H96.5835L96.5835 35.5812ZM93.6787 40.334C93.2643 40.2824 92.8735 40.1129 92.5535 39.8458C92.2335 39.5787 91.9977 39.2255 91.8745 38.8284C91.7513 38.4313 91.7459 38.0072 91.859 37.6072C91.9721 37.2071 92.1988 36.848 92.512 36.573C92.8252 36.298 93.2115 36.1187 93.6245 36.0568C94.0376 35.9948 94.4598 36.0527 94.8406 36.2236C95.2214 36.3945 95.5445 36.6711 95.7711 37.0202C95.9978 37.3692 96.1184 37.776 96.1184 38.1915C96.1111 38.4954 96.0408 38.7946 95.9119 39.0702C95.7829 39.3457 95.5981 39.5918 95.369 39.793C95.14 39.9942 94.8716 40.1461 94.5807 40.2392C94.2898 40.3323 93.9828 40.3646 93.6787 40.334ZM95.212 33.8253H92.1349V32.8114H95.212L95.212 33.8253ZM93.6787 39.3479C93.8379 39.3577 93.9974 39.3351 94.1474 39.2812C94.2974 39.2274 94.4348 39.1436 94.551 39.035C94.6672 38.9264 94.7598 38.7952 94.8231 38.6496C94.8864 38.504 94.9191 38.347 94.9191 38.1884C94.9191 38.0297 94.8864 37.8728 94.8231 37.7271C94.7598 37.5815 94.6672 37.4504 94.551 37.3417C94.4348 37.2331 94.2974 37.1493 94.1474 37.0955C93.9974 37.0417 93.8379 37.019 93.6787 37.0289C93.522 37.023 93.3657 37.0487 93.2192 37.1043C93.0726 37.1599 92.9389 37.2444 92.8259 37.3527C92.7129 37.4609 92.6231 37.5907 92.5617 37.7343C92.5003 37.8779 92.4687 38.0323 92.4687 38.1884C92.4687 38.3444 92.5003 38.4988 92.5617 38.6424C92.6231 38.786 92.7129 38.9158 92.8259 39.0241C92.9389 39.1323 93.0726 39.2168 93.2192 39.2724C93.3657 39.3281 93.522 39.3537 93.6787 39.3479ZM98.6402 36.3288H100.095V37.3545H98.6402V42.2496H97.3892V32.1641H98.6402L98.6402 36.3288Z" fill="white"/>
<path d="M101.768 40.4157L101.059 39.4375C102.115 38.9868 103.036 38.2729 103.734 37.3646C104.432 36.4564 104.882 35.3844 105.042 34.2523H101.624V33.2201H106.378C106.364 34.7286 105.924 36.2029 105.109 37.475C104.294 38.7472 103.136 39.766 101.768 40.4157ZM109.424 42.2561H108.167V32.1575H109.424V42.2561Z" fill="white"/>
<path d="M55.8524 22.3482H50.3636L49.0464 26.2203H46.7207L51.9206 11.8923H54.3351L59.535 26.2203H57.1696L55.8524 22.3482ZM50.9321 20.5606H55.2839L53.1372 14.276H53.0775L50.9321 20.5606Z" fill="white"/>
<path d="M70.7842 20.9983C70.7842 24.2441 69.0377 26.3297 66.4032 26.3297C65.7356 26.3648 65.0716 26.2119 64.4873 25.8887C63.903 25.5655 63.4221 25.0851 63.0996 24.5025H63.0506V29.6757H60.8945V15.775H62.9803V17.5126H63.0201C63.3574 16.9326 63.8464 16.4546 64.4352 16.1293C65.024 15.804 65.6904 15.6438 66.3635 15.6655C69.0284 15.6655 70.7842 17.7604 70.7842 20.9983ZM68.5686 20.9983C68.5686 18.8823 67.4713 17.4928 65.795 17.4928C64.1478 17.4928 63.04 18.9127 63.04 20.9983C63.04 23.1024 64.1478 24.5131 65.795 24.5131C67.4713 24.513 68.5686 23.1327 68.5686 20.9983Z" fill="white"/>
<path d="M82.3604 20.9983C82.3604 24.2441 80.6138 26.3297 77.9794 26.3297C77.3118 26.3648 76.6478 26.2119 76.0635 25.8887C75.4792 25.5656 74.9982 25.0851 74.6758 24.5025H74.6267V29.6757H72.4707V15.775H74.5565V17.5126H74.5963C74.9335 16.9326 75.4226 16.4546 76.0114 16.1293C76.6001 15.804 77.2666 15.6438 77.9397 15.6655C80.6046 15.6655 82.3604 17.7604 82.3604 20.9983ZM80.1447 20.9983C80.1447 18.8823 79.0475 17.4928 77.3712 17.4928C75.724 17.4928 74.6161 18.9127 74.6161 20.9983C74.6161 23.1024 75.724 24.5131 77.3712 24.5131C79.0475 24.513 80.1447 23.1327 80.1447 20.9983Z" fill="white"/>
<path d="M90.0404 22.2283C90.2007 23.6481 91.5869 24.5815 93.4832 24.5815C95.3 24.5815 96.6079 23.6481 96.6079 22.368C96.6079 21.2553 95.8194 20.5909 93.9523 20.1334L92.0865 19.6865C89.4414 19.051 88.2143 17.821 88.2143 15.825C88.2143 13.3531 90.3797 11.655 93.4541 11.655C96.498 11.655 98.5838 13.3531 98.654 15.825H96.4781C96.3482 14.3946 95.1609 13.5311 93.4235 13.5311C91.6876 13.5311 90.5002 14.4051 90.5002 15.676C90.5002 16.6885 91.2582 17.2844 93.1148 17.7406L94.701 18.1282C97.6548 18.823 98.8832 20.0042 98.8832 22.1004C98.8832 24.7806 96.7377 26.4589 93.3241 26.4589C90.1304 26.4589 87.9751 24.8202 87.8359 22.2283L90.0404 22.2283Z" fill="white"/>
<path d="M103.535 13.303V15.7749H105.531V17.4729H103.535V23.2316C103.535 24.1254 103.934 24.542 104.812 24.542C105.049 24.5384 105.285 24.5221 105.52 24.4932V26.1807C105.126 26.2538 104.725 26.2869 104.323 26.2796C102.197 26.2796 101.368 25.4859 101.368 23.4596V17.473H99.8418V15.7749H101.368V13.303H103.535Z" fill="white"/>
<path d="M106.711 20.9983C106.711 17.7116 108.656 15.6458 111.691 15.6458C114.735 15.6458 116.671 17.7116 116.671 20.9983C116.671 24.2942 114.745 26.3495 111.691 26.3495C108.636 26.3495 106.711 24.2942 106.711 20.9983ZM114.475 20.9983C114.475 18.7439 113.437 17.4137 111.691 17.4137C109.944 17.4137 108.907 18.7531 108.907 20.9983C108.907 23.2619 109.944 24.5816 111.691 24.5816C113.437 24.5816 114.475 23.262 114.475 20.9983Z" fill="white"/>
<path d="M118.449 15.7748H120.505V17.552H120.555C120.694 16.9969 121.021 16.5062 121.48 16.1627C121.94 15.8191 122.505 15.6435 123.079 15.6654C123.328 15.6639 123.576 15.6908 123.819 15.7458V17.751C123.505 17.6559 123.178 17.6123 122.85 17.6219C122.537 17.6091 122.225 17.664 121.935 17.7826C121.646 17.9012 121.385 18.0808 121.172 18.309C120.959 18.5372 120.798 18.8087 120.7 19.1047C120.602 19.4007 120.57 19.7143 120.605 20.0239V26.2202H118.449V15.7748Z" fill="white"/>
<path d="M133.756 23.1525C133.519 24.1397 132.93 25.0079 132.099 25.5959C131.267 26.1838 130.25 26.4516 129.235 26.3495C126.181 26.3495 124.285 24.314 124.285 21.0471C124.285 17.771 126.191 15.6458 129.146 15.6458C132.049 15.6458 133.875 17.6312 133.875 20.7992V21.5335H126.461V21.6627C126.427 22.0471 126.475 22.4344 126.603 22.7988C126.73 23.1631 126.935 23.4963 127.202 23.7761C127.469 24.056 127.793 24.276 128.152 24.4217C128.511 24.5674 128.897 24.6354 129.285 24.6211C129.794 24.6687 130.305 24.5515 130.742 24.2869C131.179 24.0223 131.519 23.6244 131.71 23.1525H133.756ZM126.47 20.0346H131.721C131.74 19.689 131.687 19.3432 131.566 19.0189C131.444 18.6945 131.257 18.3986 131.015 18.1497C130.773 17.9008 130.483 17.7043 130.161 17.5724C129.839 17.4405 129.494 17.3762 129.146 17.3834C128.795 17.3812 128.447 17.4483 128.122 17.5806C127.797 17.713 127.502 17.908 127.253 18.1545C127.004 18.4009 126.807 18.694 126.673 19.0167C126.538 19.3394 126.47 19.6853 126.47 20.0346Z" fill="white"/>
<path d="M142.601 12.1336H144.281V25.5374H142.601V18.7715H141.369C141.216 21.1617 140.24 23.2395 138.27 23.2395C136.106 23.2395 135.146 20.7399 135.146 18.0715C135.146 15.4018 136.106 12.9536 138.27 12.9536C140.198 12.9536 141.173 14.8956 141.36 17.2093H142.601L142.601 12.1336ZM139.74 18.0715C139.74 16.1032 139.264 14.6002 138.27 14.6002C137.303 14.6002 136.861 16.1032 136.861 18.0715C136.861 20.0477 137.303 21.5335 138.27 21.5335C139.264 21.5335 139.74 20.0477 139.74 18.0715ZM147.217 11.8462V26.2124H145.537V11.8462H147.217Z" fill="white"/>
<path d="M154.813 15.2159C154.754 16.4818 155.058 17.7384 155.689 18.8391C156.321 19.9397 157.254 20.839 158.379 21.432L157.335 22.7754C155.792 21.9025 154.588 20.5408 153.914 18.9073C153.302 20.6852 152.074 22.1883 150.45 23.1472L149.346 21.846C150.496 21.1857 151.442 20.2237 152.08 19.0649C152.718 17.9061 153.024 16.5951 152.963 15.2752V13.0538H154.813L154.813 15.2159ZM161.58 26.2124H159.78V18.3154H156.885V16.8045H159.78V11.8462H161.58V26.2124Z" fill="white"/>
<path d="M33.6108 27.4061C33.6254 26.2793 33.9262 25.1745 34.4853 24.1945C35.0444 23.2144 35.8436 22.391 36.8085 21.8008C36.1955 20.9299 35.3869 20.2131 34.4467 19.7075C33.5066 19.2018 32.4609 18.9212 31.3927 18.888C29.114 18.65 26.9049 20.2445 25.7437 20.2445C24.5601 20.2445 22.7723 18.9116 20.8471 18.951C19.6018 18.991 18.3882 19.3513 17.3245 19.9967C16.2608 20.642 15.3833 21.5505 14.7775 22.6336C12.1531 27.154 14.1107 33.7974 16.6246 37.4513C17.8824 39.2406 19.3523 41.2392 21.2758 41.1683C23.158 41.0906 23.8609 39.9742 26.1329 39.9742C28.3838 39.9742 29.0433 41.1683 31.0058 41.1232C33.0255 41.0906 34.298 39.3261 35.5116 37.5199C36.4153 36.245 37.1107 34.836 37.5721 33.345C36.3987 32.8513 35.3974 32.0248 34.6929 30.9687C33.9885 29.9126 33.6121 28.6736 33.6108 27.4061Z" fill="white"/>
<path d="M29.9035 16.4848C31.0047 15.1696 31.5473 13.4792 31.4159 11.7725C29.7335 11.9483 28.1794 12.7482 27.0633 14.0129C26.5176 14.6308 26.0997 15.3496 25.8334 16.1282C25.5671 16.9068 25.4576 17.7301 25.5113 18.5508C26.3528 18.5594 27.1853 18.378 27.9461 18.0201C28.7069 17.6622 29.3762 17.1373 29.9035 16.4848Z" fill="white"/>
</g>
<defs>
<clipPath id="clip0_1182_5770">
<rect width="176" height="54" fill="white"/>
</clipPath>
</defs>
</svg>
